<mxfile host="app.diagrams.net" agent="Mozilla/5.0 (Windows NT 10.0; Win64; x64) AppleWebKit/537.36 (KHTML, like Gecko) Chrome/130.0.0.0 Safari/537.36" version="24.8.0">
  <diagram name="Strona-1" id="pyM8E-PEpE4E1CLHN6h6">
    <mxGraphModel dx="1071" dy="959" grid="1" gridSize="10" guides="1" tooltips="1" connect="1" arrows="1" fold="1" page="0" pageScale="1" pageWidth="827" pageHeight="1169" math="0" shadow="0">
      <root>
        <mxCell id="0" />
        <mxCell id="1" parent="0" />
        <mxCell id="taX36ckPyQQBXvDgylJO-51" value="" style="rounded=0;whiteSpace=wrap;html=1;" vertex="1" parent="1">
          <mxGeometry x="290" y="90" width="290" height="810" as="geometry" />
        </mxCell>
        <mxCell id="taX36ckPyQQBXvDgylJO-18" style="edgeStyle=orthogonalEdgeStyle;rounded=1;orthogonalLoop=1;jettySize=auto;html=1;exitX=0.5;exitY=0.5;exitDx=0;exitDy=0;exitPerimeter=0;fillColor=#f8cecc;strokeColor=#b85450;curved=0;" edge="1" parent="1" source="taX36ckPyQQBXvDgylJO-1" target="taX36ckPyQQBXvDgylJO-5">
          <mxGeometry relative="1" as="geometry">
            <Array as="points">
              <mxPoint x="680" y="420" />
              <mxPoint x="680" y="150" />
            </Array>
          </mxGeometry>
        </mxCell>
        <mxCell id="taX36ckPyQQBXvDgylJO-19" style="edgeStyle=orthogonalEdgeStyle;rounded=1;orthogonalLoop=1;jettySize=auto;html=1;exitX=0.5;exitY=0.5;exitDx=0;exitDy=0;exitPerimeter=0;curved=0;fillColor=#f8cecc;strokeColor=#b85450;" edge="1" parent="1" source="taX36ckPyQQBXvDgylJO-1" target="taX36ckPyQQBXvDgylJO-7">
          <mxGeometry relative="1" as="geometry">
            <Array as="points">
              <mxPoint x="680" y="420" />
              <mxPoint x="680" y="340" />
            </Array>
          </mxGeometry>
        </mxCell>
        <mxCell id="taX36ckPyQQBXvDgylJO-20" style="edgeStyle=orthogonalEdgeStyle;rounded=1;orthogonalLoop=1;jettySize=auto;html=1;exitX=0.5;exitY=0.5;exitDx=0;exitDy=0;exitPerimeter=0;fillColor=#f8cecc;strokeColor=#b85450;curved=0;" edge="1" parent="1" source="taX36ckPyQQBXvDgylJO-1" target="taX36ckPyQQBXvDgylJO-8">
          <mxGeometry relative="1" as="geometry">
            <Array as="points">
              <mxPoint x="745" y="420" />
            </Array>
          </mxGeometry>
        </mxCell>
        <mxCell id="taX36ckPyQQBXvDgylJO-21" style="edgeStyle=orthogonalEdgeStyle;rounded=1;orthogonalLoop=1;jettySize=auto;html=1;exitX=0.5;exitY=0.5;exitDx=0;exitDy=0;exitPerimeter=0;fillColor=#f8cecc;strokeColor=#b85450;curved=0;" edge="1" parent="1" source="taX36ckPyQQBXvDgylJO-1" target="taX36ckPyQQBXvDgylJO-9">
          <mxGeometry relative="1" as="geometry">
            <Array as="points">
              <mxPoint x="680" y="420" />
              <mxPoint x="680" y="500" />
            </Array>
          </mxGeometry>
        </mxCell>
        <mxCell id="taX36ckPyQQBXvDgylJO-1" value="Refiller" style="shape=umlActor;verticalLabelPosition=bottom;verticalAlign=top;html=1;outlineConnect=0;fillColor=#f8cecc;strokeColor=#b85450;" vertex="1" parent="1">
          <mxGeometry x="730" y="390" width="30" height="60" as="geometry" />
        </mxCell>
        <mxCell id="taX36ckPyQQBXvDgylJO-16" style="edgeStyle=orthogonalEdgeStyle;rounded=1;orthogonalLoop=1;jettySize=auto;html=1;exitX=0.5;exitY=0.5;exitDx=0;exitDy=0;exitPerimeter=0;curved=0;fillColor=#dae8fc;strokeColor=#6c8ebf;" edge="1" parent="1" source="taX36ckPyQQBXvDgylJO-2" target="taX36ckPyQQBXvDgylJO-5">
          <mxGeometry relative="1" as="geometry">
            <Array as="points">
              <mxPoint x="720" y="200" />
              <mxPoint x="720" y="140" />
            </Array>
          </mxGeometry>
        </mxCell>
        <mxCell id="taX36ckPyQQBXvDgylJO-17" style="edgeStyle=orthogonalEdgeStyle;rounded=1;orthogonalLoop=1;jettySize=auto;html=1;exitX=0.5;exitY=0.5;exitDx=0;exitDy=0;exitPerimeter=0;fillColor=#dae8fc;strokeColor=#6c8ebf;curved=0;" edge="1" parent="1" source="taX36ckPyQQBXvDgylJO-2" target="taX36ckPyQQBXvDgylJO-6">
          <mxGeometry relative="1" as="geometry">
            <Array as="points">
              <mxPoint x="720" y="200" />
              <mxPoint x="720" y="240" />
            </Array>
          </mxGeometry>
        </mxCell>
        <mxCell id="taX36ckPyQQBXvDgylJO-2" value="End user" style="shape=umlActor;verticalLabelPosition=bottom;verticalAlign=top;html=1;outlineConnect=0;fillColor=#dae8fc;strokeColor=#6c8ebf;" vertex="1" parent="1">
          <mxGeometry x="730" y="170" width="30" height="60" as="geometry" />
        </mxCell>
        <mxCell id="taX36ckPyQQBXvDgylJO-41" style="edgeStyle=orthogonalEdgeStyle;rounded=1;orthogonalLoop=1;jettySize=auto;html=1;exitX=0.5;exitY=0.5;exitDx=0;exitDy=0;exitPerimeter=0;fillColor=#fad7ac;strokeColor=#b46504;curved=0;" edge="1" parent="1" source="taX36ckPyQQBXvDgylJO-3" target="taX36ckPyQQBXvDgylJO-5">
          <mxGeometry relative="1" as="geometry">
            <Array as="points">
              <mxPoint x="640" y="600" />
              <mxPoint x="640" y="160" />
            </Array>
          </mxGeometry>
        </mxCell>
        <mxCell id="taX36ckPyQQBXvDgylJO-42" style="edgeStyle=orthogonalEdgeStyle;rounded=1;orthogonalLoop=1;jettySize=auto;html=1;exitX=0.5;exitY=0.5;exitDx=0;exitDy=0;exitPerimeter=0;fillColor=#fad7ac;strokeColor=#b46504;curved=0;" edge="1" parent="1" source="taX36ckPyQQBXvDgylJO-3" target="taX36ckPyQQBXvDgylJO-10">
          <mxGeometry relative="1" as="geometry">
            <Array as="points">
              <mxPoint x="700" y="600" />
              <mxPoint x="700" y="600" />
            </Array>
          </mxGeometry>
        </mxCell>
        <mxCell id="taX36ckPyQQBXvDgylJO-43" style="edgeStyle=orthogonalEdgeStyle;rounded=1;orthogonalLoop=1;jettySize=auto;html=1;exitX=0.5;exitY=0.5;exitDx=0;exitDy=0;exitPerimeter=0;fillColor=#fad7ac;strokeColor=#b46504;curved=0;" edge="1" parent="1" source="taX36ckPyQQBXvDgylJO-3" target="taX36ckPyQQBXvDgylJO-11">
          <mxGeometry relative="1" as="geometry">
            <Array as="points">
              <mxPoint x="640" y="600" />
              <mxPoint x="640" y="680" />
            </Array>
          </mxGeometry>
        </mxCell>
        <mxCell id="taX36ckPyQQBXvDgylJO-44" style="edgeStyle=orthogonalEdgeStyle;rounded=1;orthogonalLoop=1;jettySize=auto;html=1;exitX=0.5;exitY=0.5;exitDx=0;exitDy=0;exitPerimeter=0;fillColor=#fad7ac;strokeColor=#b46504;curved=0;" edge="1" parent="1" source="taX36ckPyQQBXvDgylJO-3" target="taX36ckPyQQBXvDgylJO-13">
          <mxGeometry relative="1" as="geometry">
            <Array as="points">
              <mxPoint x="640" y="600" />
              <mxPoint x="640" y="760" />
            </Array>
          </mxGeometry>
        </mxCell>
        <mxCell id="taX36ckPyQQBXvDgylJO-45" style="edgeStyle=orthogonalEdgeStyle;rounded=1;orthogonalLoop=1;jettySize=auto;html=1;exitX=0.5;exitY=0.5;exitDx=0;exitDy=0;exitPerimeter=0;fillColor=#fad7ac;strokeColor=#b46504;curved=0;" edge="1" parent="1" source="taX36ckPyQQBXvDgylJO-3" target="taX36ckPyQQBXvDgylJO-12">
          <mxGeometry relative="1" as="geometry">
            <Array as="points">
              <mxPoint x="640" y="600" />
              <mxPoint x="640" y="840" />
            </Array>
          </mxGeometry>
        </mxCell>
        <mxCell id="taX36ckPyQQBXvDgylJO-3" value="Service" style="shape=umlActor;verticalLabelPosition=bottom;verticalAlign=top;html=1;outlineConnect=0;fillColor=#fad7ac;strokeColor=#b46504;" vertex="1" parent="1">
          <mxGeometry x="730" y="570" width="30" height="60" as="geometry" />
        </mxCell>
        <mxCell id="taX36ckPyQQBXvDgylJO-5" value="Scanning access&lt;div&gt;card&lt;/div&gt;" style="ellipse;whiteSpace=wrap;html=1;" vertex="1" parent="1">
          <mxGeometry x="375" y="110" width="120" height="80" as="geometry" />
        </mxCell>
        <mxCell id="taX36ckPyQQBXvDgylJO-6" value="Retrieving&amp;nbsp;&lt;div&gt;clothing&lt;/div&gt;" style="ellipse;whiteSpace=wrap;html=1;" vertex="1" parent="1">
          <mxGeometry x="375" y="200" width="120" height="80" as="geometry" />
        </mxCell>
        <mxCell id="taX36ckPyQQBXvDgylJO-7" value="Reffiling missing garments" style="ellipse;whiteSpace=wrap;html=1;" vertex="1" parent="1">
          <mxGeometry x="375" y="300" width="120" height="80" as="geometry" />
        </mxCell>
        <mxCell id="taX36ckPyQQBXvDgylJO-8" value="Taking misplaced clothing" style="ellipse;whiteSpace=wrap;html=1;" vertex="1" parent="1">
          <mxGeometry x="375" y="380" width="120" height="80" as="geometry" />
        </mxCell>
        <mxCell id="taX36ckPyQQBXvDgylJO-9" value="Changing system settings" style="ellipse;whiteSpace=wrap;html=1;" vertex="1" parent="1">
          <mxGeometry x="375" y="460" width="120" height="80" as="geometry" />
        </mxCell>
        <mxCell id="taX36ckPyQQBXvDgylJO-10" value="Hardware condition tesing" style="ellipse;whiteSpace=wrap;html=1;" vertex="1" parent="1">
          <mxGeometry x="375" y="560" width="120" height="80" as="geometry" />
        </mxCell>
        <mxCell id="taX36ckPyQQBXvDgylJO-11" value="Uploading a configuration" style="ellipse;whiteSpace=wrap;html=1;" vertex="1" parent="1">
          <mxGeometry x="375" y="640" width="120" height="80" as="geometry" />
        </mxCell>
        <mxCell id="taX36ckPyQQBXvDgylJO-12" value="Returning to factory settings" style="ellipse;whiteSpace=wrap;html=1;" vertex="1" parent="1">
          <mxGeometry x="375" y="800" width="120" height="80" as="geometry" />
        </mxCell>
        <mxCell id="taX36ckPyQQBXvDgylJO-13" value="Downloading a copy of the configuration&amp;nbsp;" style="ellipse;whiteSpace=wrap;html=1;" vertex="1" parent="1">
          <mxGeometry x="375" y="720" width="120" height="80" as="geometry" />
        </mxCell>
        <mxCell id="taX36ckPyQQBXvDgylJO-52" value="&lt;span style=&quot;font-size: 20px;&quot;&gt;&lt;b&gt;D&lt;/b&gt;&lt;/span&gt;&lt;b style=&quot;font-size: 20px; background-color: initial;&quot;&gt;istributor of RFID-tagged clothing&lt;/b&gt;" style="text;html=1;align=center;verticalAlign=middle;whiteSpace=wrap;rounded=0;strokeWidth=1;" vertex="1" parent="1">
          <mxGeometry x="307.5" y="30" width="255" height="40" as="geometry" />
        </mxCell>
        <mxCell id="taX36ckPyQQBXvDgylJO-57" value="" style="endArrow=classic;html=1;rounded=0;dashed=1;dashPattern=8 8;" edge="1" parent="1" source="taX36ckPyQQBXvDgylJO-6" target="taX36ckPyQQBXvDgylJO-8">
          <mxGeometry width="50" height="50" relative="1" as="geometry">
            <mxPoint x="190" y="450" as="sourcePoint" />
            <mxPoint x="240" y="400" as="targetPoint" />
            <Array as="points">
              <mxPoint x="320" y="240" />
              <mxPoint x="320" y="420" />
            </Array>
          </mxGeometry>
        </mxCell>
      </root>
    </mxGraphModel>
  </diagram>
</mxfile>
